<?xml version="1.0" encoding="UTF-8" standalone="no"?>
<!DOCTYPE svg PUBLIC "-//W3C//DTD SVG 1.1//EN" "http://www.w3.org/Graphics/SVG/1.1/DTD/svg11.dtd">
<svg width="100%" height="100%" viewBox="0 0 32 32" version="1.1" xmlns="http://www.w3.org/2000/svg" xmlns:xlink="http://www.w3.org/1999/xlink" xml:space="preserve" xmlns:serif="http://www.serif.com/" style="fill-rule:evenodd;clip-rule:evenodd;stroke-linejoin:round;stroke-miterlimit:1.5;">
    <g id="data-file">
        <path id="back-panel" d="M3.486,0.32L3.486,24.371L13.259,30.931L13.322,29.111L14.531,29.799L14.598,26.526L14.227,26.032L14.227,24.449L14.602,24.298L14.602,8.223C14.602,8.223 14.675,7.721 14.095,7.25C13.515,6.779 3.486,0.32 3.486,0.32Z" style="fill:rgb(113,44,46);fill-opacity:0.8;stroke:rgb(132,44,46);stroke-width:0.3px;"/>
        <path d="M12.159,8.272L1.834,1.158C1.834,1.158 1.4,1.185 1.392,1.68C1.385,2.174 1.392,18.863 1.392,18.863L1.871,19.234L1.871,19.906L1.432,19.906L1.432,23.347L1.683,23.519L1.683,25.392L11.208,31.803L11.333,30.129L12.594,30.855L12.589,27.522L12.255,27.262L12.278,25.422L12.573,25.305L12.496,8.863L12.159,8.272Z" style="fill:rgb(132,44,46);fill-opacity:0.54;stroke:rgb(132,44,46);stroke-width:0.3px;"/>
        <path d="M3.592,0.28L1.834,1.158C1.834,1.158 1.4,1.185 1.392,1.68C1.385,2.174 1.392,18.863 1.392,18.863L1.871,19.234L1.871,19.906L1.432,19.906L1.432,23.347L1.683,23.519L1.683,25.392L11.208,31.803L13.242,30.867L3.635,24.402L3.592,0.28Z" style="fill:rgb(132,44,46);fill-opacity:0.7;stroke:rgb(132,44,46);stroke-width:0.3px;"/>
        <g transform="matrix(1,0,0,1,0.556184,-0.176954)">
            <path d="M5.828,12.314C4.085,11.622 2.429,12.45 2.234,16.244C2.047,19.898 3.486,21.357 4.581,22.937C5.676,24.517 7.561,26.437 9.656,26.069C10.947,25.843 11.652,24.055 11.39,19.997C11.185,19.342 11.5,19.266 10.703,18.651C9.906,18.035 8.389,16.912 7.865,16.648C7.342,16.384 6.966,16.281 6.935,15.54C6.904,14.799 7.021,13.999 6.989,13.606C6.957,13.214 7.008,12.783 5.828,12.314Z" style="fill:rgb(121,43,45);fill-opacity:0.5;"/>
        </g>
        <path d="M5.828,12.314C4.085,11.622 2.429,12.45 2.234,16.244C2.047,19.898 3.486,21.357 4.581,22.937C5.676,24.517 7.561,26.437 9.656,26.069C10.947,25.843 11.652,24.055 11.39,19.997C11.185,19.342 11.5,19.266 10.703,18.651C9.906,18.035 8.389,16.912 7.865,16.648C7.342,16.384 6.966,16.281 6.935,15.54C6.904,14.799 7.021,13.999 6.989,13.606C6.957,13.214 7.008,12.783 5.828,12.314Z" style="fill:rgb(121,43,45);fill-opacity:0.3;"/>
        <path d="M7.948,18.067C7.183,16.953 5.365,15.695 5.262,18.119C5.227,18.933 5.498,19.651 5.871,20.206C6.16,20.634 6.614,21.116 6.867,21.33C7.451,21.822 8.725,21.684 8.689,20.5C8.652,19.317 8.191,18.422 7.948,18.067Z" style="fill:rgb(125,44,46);stroke:rgb(132,44,46);stroke-width:0.3px;"/>
        <g transform="matrix(1,0,0,0.965234,0,0.734553)">
            <path d="M7.712,17.776C7.062,16.919 6.66,16.417 6.129,16.628C5.874,16.73 5.766,16.987 5.789,17.906C5.803,18.478 6.065,19.326 6.397,19.869C6.693,20.353 7.409,21.114 7.714,21.243C8.132,21.418 8.48,21.113 8.449,20.197C8.409,19.014 7.972,18.119 7.712,17.776Z" style="fill:rgb(92,33,34);"/>
        </g>
        <path d="M6.553,18.035C6.39,18.042 6.79,19.859 7.162,20.084C7.535,20.309 7.855,20.237 7.998,20.169C8.14,20.1 8.273,19.511 8.178,19.084C8.084,18.658 7.653,17.938 7.449,17.848C7.246,17.758 6.772,18.027 6.553,18.035Z" style="fill:rgb(113,44,46);"/>
        <path d="M6.457,18.145C6.285,18.183 6.164,18.795 6.337,19.11C6.51,19.424 7.101,20.227 7.355,20.238C7.61,20.249 7.626,19.732 7.597,19.36C7.567,18.988 7.316,18.44 7.081,18.268C6.846,18.096 6.669,18.099 6.457,18.145ZM6.834,18.876C6.753,18.906 6.721,19.04 6.739,19.164C6.757,19.287 6.824,19.4 6.942,19.385C7.178,19.355 7.06,18.792 6.834,18.876Z" style="fill:rgb(132,44,46);"/>
    </g>
</svg>
