<?xml version="1.0" encoding="UTF-8" standalone="no"?>
<!DOCTYPE svg PUBLIC "-//W3C//DTD SVG 1.1//EN" "http://www.w3.org/Graphics/SVG/1.1/DTD/svg11.dtd">
<svg width="100%" height="100%" viewBox="0 0 800 270" version="1.1" xmlns="http://www.w3.org/2000/svg" xmlns:xlink="http://www.w3.org/1999/xlink" xml:space="preserve" xmlns:serif="http://www.serif.com/" style="fill-rule:evenodd;clip-rule:evenodd;stroke-linejoin:round;stroke-miterlimit:2;">
    <path id="barcode" d="M66.725,0.041L60.027,0.041L60.027,270.182L66.725,270.182L66.725,0.041ZM460.154,-0.011L460.154,-0.091L453.496,-0.091L453.496,270.168L460.154,270.168L460.154,240.362L466.68,240.362L466.68,150.224L486.822,150.224L486.822,210.317L493.521,210.317L493.521,240.356L499.99,240.356L499.99,269.978L506.763,269.978L506.763,240.356L513.52,240.356L513.52,210.267L500.14,210.267L500.14,180.298L520.047,180.298L520.047,210.317L527.103,210.317L527.103,180.229L520.162,180.229L520.162,150.21L513.431,150.21L513.431,120.048L506.829,120.048L506.829,150.21L500.104,150.21L500.104,90.161L493.501,90.161L493.501,119.957L466.578,119.957L466.578,150.207L460.154,150.207L460.154,60.328L466.437,60.328L466.437,90.19L493.329,90.19L493.329,59.923L486.825,59.923L486.825,30.273L493.501,30.273L493.501,60.14L506.829,60.14L506.829,90.262L513.431,90.262L513.431,60.133L520.025,60.133L520.025,30.089L527.015,30.089L527.015,-0.03L513.422,-0.03L513.422,59.995L507.065,59.995L507.065,0.006L486.751,0.006L486.751,30.061L466.784,30.061L466.784,-0.011L460.154,-0.011ZM53.45,0.05L0.091,0.05L0.091,270.152L53.45,270.152L53.45,0.05ZM326.754,240.382L326.754,180.265L320.087,180.265L320.087,240.382L313.417,240.382L313.417,270.1L333.383,270.1L333.383,240.382L326.754,240.382ZM366.907,30.86L366.908,30.86L366.908,29.967L353.401,29.967L346.874,29.967L346.874,0.073L339.981,0.073L339.981,150.537L340.007,150.537L340.007,270.1L360.139,270.1L360.139,150.285L366.771,150.285L366.771,180.16L386.68,180.16L386.68,240.423L380.2,240.423L380.2,269.951L413.425,269.951L413.425,240.423L406.843,240.423L406.843,210.369L400.017,210.369L400.017,180.16L406.963,180.16L406.963,150.241L413.4,150.241L413.4,90.376L433.569,90.376L433.569,120.155L446.751,120.155L446.751,30.06L440.094,30.06L440.094,60.108L433.484,60.108L433.484,0.073L426.827,0.073L426.827,60.108L406.802,60.108L406.802,90.376L406.857,90.376L406.857,150.121L393.577,150.121L393.577,120.12L373.463,120.12L373.463,150.121L366.907,150.121L366.907,30.86ZM206.637,120.69L206.637,120.223L206.977,120.223L206.977,120.229L213.048,120.229L213.048,120.336L220.048,120.336L220.048,90.181L213.463,90.181L213.463,90.074L199.345,90.074L199.345,90.085L186.764,90.085L186.764,90.174L186.754,90.174L186.754,120.329L193.425,120.329L193.425,120.288L193.431,120.288L193.431,120.329L199.809,120.329L199.809,120.896L199.807,120.896L199.807,180.138L193.59,180.138L193.59,150.192L166.849,150.192L166.849,120.116L173.457,120.116L173.457,90.275L173.466,90.275L173.466,90.068L186.833,90.068L186.833,60.026L166.849,60.026L166.849,30.063L173.387,30.063L173.387,0.021L166.716,0.021L166.716,30.039L160.178,30.039L160.178,90.068L160.183,90.068L160.183,90.074L159.339,90.074L159.339,90.172L146.743,90.172L146.743,150.305L153.425,150.305L153.425,180.234L160.096,180.234L160.096,150.305L160.129,150.305L160.129,150.266L166.686,150.266L166.686,180.301L160.098,180.301L160.098,210.216L160.057,210.216L160.057,270.041L166.765,270.041L166.765,210.343L179.944,210.343L179.944,270.041L193.329,270.041L193.329,240.335L186.652,240.335L186.652,210.216L180.056,210.216L180.056,180.234L186.374,180.234L186.374,210.18L193.403,210.18L193.403,210.596L193.403,240.355L206.798,240.355L206.798,270.019L213.456,270.019L213.456,210.596L213.456,210.18L220.046,210.18L220.046,180.138L213.425,180.138L213.425,150.242L206.637,150.242L206.637,120.69ZM93.392,-0.022L86.696,-0.022L86.696,270.021L93.392,270.021L93.392,-0.022ZM739.991,0.276L733.812,0.276L733.812,270.021L739.991,270.021L739.991,0.276ZM80.014,-0.174L73.353,-0.174L73.353,270.021L80.014,270.021L80.014,-0.174ZM766.632,0.276L760.453,0.276L760.453,270.021L766.632,270.021L766.632,0.276ZM780.202,0.276L774.023,0.276L774.023,270.021L780.202,270.021L780.202,0.276ZM800.093,0.276L793.914,0.276L793.914,270.021L800.093,270.021L800.093,0.276ZM140.121,30.063L140.121,60.081L133.45,60.081L133.45,60.077L133.435,60.077L133.435,60.081L133.434,60.081L133.434,60.102L133.435,60.102L133.435,90.144L126.853,90.144L126.853,150.318L133.41,150.318L133.41,150.27L133.387,150.27L133.387,120.227L133.419,120.227L133.419,120.215L133.387,120.215L133.387,90.173L140.058,90.173L140.058,120.215L140.057,120.215L140.057,120.227L140.058,120.227L140.058,149.22L140.077,149.22L140.077,150.318L146.641,150.318L146.641,210.263L148.847,210.263L148.847,210.278L153.322,210.278L153.322,270.002L148.847,270.002L148.847,270.013L132.195,270.013L132.195,270.002L120.162,270.002L120.162,269.997L120.132,269.997L120.132,270.021L113.378,270.021L113.378,-0.043L120.132,-0.043L120.132,0.021L133.435,0.021L133.435,0.031L133.45,0.031L133.45,0.021L140.121,0.021L140.121,0.025L140.169,0.025L140.169,0.021L146.84,0.021L146.84,30.039L153.38,30.039L153.38,60.081L146.709,60.081L146.709,30.063L140.121,30.063ZM293.469,30.031L293.469,30.04L286.763,30.04L286.763,60.104L273.397,60.104L273.397,89.937L273.276,89.937L273.276,90.139L266.881,90.139L266.881,30.081L273.35,30.081L273.35,0.104L260.068,0.104L260.068,30.081L260.075,30.081L260.075,120.023L240.055,120.023L240.055,90.074L240.051,90.074L240.051,60.094L246.396,60.094L246.396,60.239L246.742,60.239L246.742,90.142L253.396,90.142L253.396,30.212L253.397,30.212L253.397,0.057L246.705,0.057L246.705,30.084L240.048,30.084L240.048,0.057L226.746,0.057L226.746,29.375L226.72,29.375L226.72,59.53L226.754,59.53L226.754,90.074L226.75,90.074L226.75,150.178L226.764,150.178L226.764,150.197L226.728,150.197L226.728,240.27L226.74,240.27L226.74,270.014L246.71,270.014L246.71,240.256L240.021,240.256L240.021,210.201L233.285,210.201L233.285,150.197L233.283,150.197L233.283,150.178L239.945,150.178L239.945,150.197L239.929,150.197L239.929,180.267L260.137,180.267L260.137,210.253L273.446,210.253L273.446,180.267L280.063,180.267L280.063,150.757L280.072,150.757L280.072,150.178L286.769,150.178L286.769,120.162L293.461,120.162L293.461,150.231L286.746,150.231L286.746,180.21L293.457,180.21L293.457,210.288L286.764,210.288L286.764,240.331L286.782,240.331L286.782,240.345L266.74,240.345L266.74,270.014L293.496,270.014L293.496,240.345L293.487,240.345L293.487,240.331L299.99,240.331L299.99,240.345L299.971,240.345L299.971,270.014L306.722,270.014L306.722,240.671L306.723,240.671L306.723,240.331L306.735,240.331L306.735,150.231L300.075,150.231L300.075,90.451L306.736,90.451L306.736,30.04L306.726,30.04L306.726,30.031L313.503,30.031L313.503,0.009L293.461,0.009L293.461,30.031L293.469,30.031ZM653.494,240.225L653.494,240.281L653.483,240.281L653.483,269.994L660.086,269.994L660.086,240.281L660.085,240.281L660.085,240.225L660.086,240.225L660.086,210.278L673.649,210.278L673.649,180.205L667.064,180.205L667.064,120.105L673.478,120.105L673.478,89.986L653.449,89.986L653.449,60.149L640.281,60.149L640.281,30.089L666.897,30.089L666.897,-0.03L633.492,-0.03L633.492,30.089L633.517,30.089L633.517,60.149L626.855,60.149L626.855,90.269L640.25,90.269L640.25,120.105L646.764,120.105L646.764,150.184L653.448,150.184L653.448,180.261L646.856,180.261L646.856,150.225L633.474,150.225L633.474,120.26L626.779,120.26L626.779,90.146L600.048,90.146L600.048,120.265L600.191,120.265L600.191,180.15L593.608,180.15L593.608,90.146L586.919,90.146L586.919,60L593.529,60L593.529,90.068L600.293,90.068L600.293,60.185L606.979,60.185L606.979,30.089L613.41,30.089L613.41,60.185L620.174,60.185L620.174,30.089L626.909,30.089L626.909,-0.03L620.145,-0.03L620.145,30.065L613.582,30.065L613.582,-0.03L606.818,-0.03L606.818,30.065L600.215,30.065L600.215,59.948L593.578,59.948L593.578,30.089L600.062,30.089L600.062,-0.03L566.722,-0.03L566.722,60L566.758,60L566.758,90.146L566.747,90.146L566.747,120.265L566.885,120.265L566.885,180.091L566.793,180.091L566.793,209.876L566.694,209.876L566.694,240.686L566.817,240.686L566.817,269.994L600.1,269.994L600.1,240.294L606.852,240.294L606.852,269.994L613.454,269.994L613.454,240.294L626.865,240.294L626.865,269.994L646.815,269.994L646.815,240.281L646.808,240.281L646.808,240.225L653.494,240.225ZM493.473,240.375L466.794,240.375L466.794,269.978L493.473,269.978L493.473,240.375ZM540.188,210.315L533.452,210.315L533.452,269.957L540.188,269.957L540.188,210.315ZM373.377,210.281L366.761,210.281L366.761,269.951L373.377,269.951L373.377,210.281ZM426.835,210.358L426.835,150.391L420.219,150.391L420.219,269.951L426.835,269.951L426.835,240.336L433.505,240.336L433.505,210.358L426.835,210.358ZM726.984,-0.049L680.275,-0.049L680.275,269.874L726.984,269.874L726.984,-0.049ZM480.157,210.284L473.491,210.284L473.491,240.372L480.157,240.372L480.157,210.284ZM573.458,210.21L573.458,240.281L580.092,240.281L580.092,210.21L573.458,210.21ZM593.458,180.214L586.908,180.214L586.908,210.21L586.856,210.21L586.856,240.281L593.601,240.281L593.601,210.269L593.458,210.269L593.458,180.214ZM640.153,240.225L640.136,240.225L640.136,180.299L633.454,180.299L633.454,210.278L633.434,210.278L633.434,240.281L640.153,240.281L640.153,240.225ZM253.381,210.201L246.749,210.201L246.749,240.27L253.381,240.27L253.381,210.201ZM446.722,210.273L446.722,150.207L439.979,150.207L439.979,180.295L433.566,180.295L433.566,210.273L446.722,210.273ZM139.97,210.263L133.417,210.263L133.417,180.36L139.97,180.36L139.97,210.263ZM546.923,120.099L533.492,120.099L533.492,180.218L540.144,180.218L540.144,210.198L546.881,210.198L546.881,180.203L540.228,180.203L540.228,150.219L553.588,150.219L553.588,120.164L560.3,120.164L560.3,90.044L546.923,90.044L546.923,120.099ZM613.549,120.265L606.955,120.265L606.955,180.275L600.222,180.275L600.222,209.876L613.549,209.876L613.549,120.265ZM333.364,119.89L333.364,90.166L326.775,90.166L326.775,120.148L320.072,120.148L320.072,150.297L326.767,150.297L326.767,180.237L333.434,180.237L333.434,150.898L333.454,150.898L333.454,119.89L333.364,119.89ZM560.269,150.223L553.532,150.223L553.532,180.218L560.269,180.218L560.269,150.223ZM353.491,60.13L353.491,150.224L360.057,150.224L360.057,60.13L353.491,60.13ZM273.409,150.178L273.384,150.178L273.384,120.416L273.276,120.416L273.276,120.161L266.884,120.161L266.884,150.178L266.85,150.178L266.85,150.197L273.409,150.197L273.409,150.178ZM526.807,120.205L526.807,59.995L520.204,59.995L520.204,90.195L513.565,90.195L513.565,120.205L526.807,120.205ZM580.16,90.163L580.16,120.184L586.844,120.184L586.844,90.163L580.16,90.163ZM280.082,90.451L280.082,120.023L286.731,120.023L286.731,90.451L280.082,90.451ZM386.813,60.113L373.463,60.113L373.463,90.152L386.813,90.152L386.813,60.113ZM573.522,60L573.522,90.146L580.155,90.146L580.155,60L573.522,60ZM146.735,60.102L140.064,60.102L140.064,90.144L146.735,90.144L146.735,60.102ZM126.764,60.081L126.764,60.102L126.764,90.08L120.132,90.08L120.132,60.081L126.764,60.081ZM546.916,30.065L540.152,30.065L540.152,60.185L546.916,60.185L546.916,30.065ZM213.365,0.021L180.043,0.021L180.043,30.063L193.295,30.063L193.295,60.132L199.966,60.132L199.966,30.063L213.365,30.063L213.365,0.021ZM406.775,30.091L400.139,30.091L400.139,60.13L406.797,60.13L406.797,30.113L413.433,30.113L413.433,0.073L406.775,0.073L406.775,30.091ZM333.363,30.1L333.363,30.042L313.471,30.042L313.471,30.1L313.462,30.1L313.462,60.13L333.364,60.13L333.364,30.1L333.363,30.1ZM386.811,0.073L380.153,0.073L380.153,30.113L386.811,30.113L386.811,0.073ZM560.305,-0.03L553.541,-0.03L553.541,30.089L560.305,30.089L560.305,-0.03ZM160.065,0.021L153.394,0.021L153.394,30.063L160.065,30.063L160.065,0.021Z" style="fill:rgb(247,80,73);"/>
</svg>
