<?xml version="1.0" encoding="UTF-8" standalone="no"?>
<!DOCTYPE svg PUBLIC "-//W3C//DTD SVG 1.1//EN" "http://www.w3.org/Graphics/SVG/1.1/DTD/svg11.dtd">
<svg width="100%" height="100%" viewBox="0 0 32 32" version="1.1" xmlns="http://www.w3.org/2000/svg" xmlns:xlink="http://www.w3.org/1999/xlink" xml:space="preserve" xmlns:serif="http://www.serif.com/" style="fill-rule:evenodd;clip-rule:evenodd;stroke-linejoin:round;stroke-miterlimit:2;">
    <g id="outer-border" transform="matrix(0.967676,0,0,0.969923,0.545865,0.598357)">
        <path d="M32.522,-0.055C32.522,-0.34 32.29,-0.571 32.005,-0.571L-0.031,-0.571C-0.316,-0.571 -0.547,-0.34 -0.547,-0.055L-0.547,31.906C-0.547,32.191 -0.316,32.422 -0.031,32.422L32.005,32.422C32.29,32.422 32.522,32.191 32.522,31.906L32.522,-0.055ZM31.488,0.46L31.488,31.391C31.488,31.391 0.486,31.391 0.486,31.391C0.486,31.391 0.486,0.46 0.486,0.46L31.488,0.46Z" style="fill:rgb(94,246,255);"/>
    </g>
    <g id="circle-4-fill" transform="matrix(1,0,0,1,0,9.62419)">
        <circle cx="5.981" cy="8.171" r="2.5" style="fill:rgb(94,246,255);"/>
    </g>
    <g id="circle-4" transform="matrix(1.07595,0,0,1.07595,-2.06798,9.40361)">
        <path d="M7.481,4.082C5.429,4.082 3.763,5.748 3.763,7.8C3.763,9.851 5.429,11.517 7.481,11.517C9.533,11.517 11.198,9.851 11.198,7.8C11.198,5.748 9.533,4.082 7.481,4.082ZM7.481,5.011C9.02,5.011 10.269,6.261 10.269,7.8C10.269,9.338 9.02,10.588 7.481,10.588C5.942,10.588 4.693,9.338 4.693,7.8C4.693,6.261 5.942,5.011 7.481,5.011Z" style="fill:rgb(94,246,255);"/>
    </g>
    <g id="circle-5" transform="matrix(1.07595,0,0,1.07595,7.9673,9.40361)">
        <path d="M7.481,4.082C5.429,4.082 3.763,5.748 3.763,7.8C3.763,9.851 5.429,11.517 7.481,11.517C9.533,11.517 11.198,9.851 11.198,7.8C11.198,5.748 9.533,4.082 7.481,4.082ZM7.481,5.011C9.02,5.011 10.269,6.261 10.269,7.8C10.269,9.338 9.02,10.588 7.481,10.588C5.942,10.588 4.693,9.338 4.693,7.8C4.693,6.261 5.942,5.011 7.481,5.011Z" style="fill:rgb(94,246,255);"/>
    </g>
    <g id="circle-6" transform="matrix(1.07595,0,0,1.07595,17.951,9.40361)">
        <path d="M7.481,4.082C5.429,4.082 3.763,5.748 3.763,7.8C3.763,9.851 5.429,11.517 7.481,11.517C9.533,11.517 11.198,9.851 11.198,7.8C11.198,5.748 9.533,4.082 7.481,4.082ZM7.481,5.011C9.02,5.011 10.269,6.261 10.269,7.8C10.269,9.338 9.02,10.588 7.481,10.588C5.942,10.588 4.693,9.338 4.693,7.8C4.693,6.261 5.942,5.011 7.481,5.011Z" style="fill:rgb(94,246,255);"/>
    </g>
    <circle id="circle-1-fill" cx="5.981" cy="8.171" r="2.5" style="fill:rgb(94,246,255);"/>
    <g id="circle-1" transform="matrix(1.07595,0,0,1.07595,-2.06798,-0.220587)">
        <path d="M7.481,4.082C5.429,4.082 3.763,5.748 3.763,7.8C3.763,9.851 5.429,11.517 7.481,11.517C9.533,11.517 11.198,9.851 11.198,7.8C11.198,5.748 9.533,4.082 7.481,4.082ZM7.481,5.011C9.02,5.011 10.269,6.261 10.269,7.8C10.269,9.338 9.02,10.588 7.481,10.588C5.942,10.588 4.693,9.338 4.693,7.8C4.693,6.261 5.942,5.011 7.481,5.011Z" style="fill:rgb(94,246,255);"/>
    </g>
    <g id="circle-2" transform="matrix(1.07595,0,0,1.07595,7.9673,-0.220587)">
        <path d="M7.481,4.082C5.429,4.082 3.763,5.748 3.763,7.8C3.763,9.851 5.429,11.517 7.481,11.517C9.533,11.517 11.198,9.851 11.198,7.8C11.198,5.748 9.533,4.082 7.481,4.082ZM7.481,5.011C9.02,5.011 10.269,6.261 10.269,7.8C10.269,9.338 9.02,10.588 7.481,10.588C5.942,10.588 4.693,9.338 4.693,7.8C4.693,6.261 5.942,5.011 7.481,5.011Z" style="fill:rgb(94,246,255);"/>
    </g>
    <g id="circle-3" transform="matrix(1.07595,0,0,1.07595,17.951,-0.220587)">
        <path d="M7.481,4.082C5.429,4.082 3.763,5.748 3.763,7.8C3.763,9.851 5.429,11.517 7.481,11.517C9.533,11.517 11.198,9.851 11.198,7.8C11.198,5.748 9.533,4.082 7.481,4.082ZM7.481,5.011C9.02,5.011 10.269,6.261 10.269,7.8C10.269,9.338 9.02,10.588 7.481,10.588C5.942,10.588 4.693,9.338 4.693,7.8C4.693,6.261 5.942,5.011 7.481,5.011Z" style="fill:rgb(94,246,255);"/>
    </g>
    <g id="text" transform="matrix(1,0,0,1,-1.05973,0.9542)">
        <path d="M6.726,28.245L5.551,26.845L6.081,26.845L7.261,28.24L7.261,28.245L6.726,28.245ZM3.686,28.245L3.686,24.65L6.686,24.65C6.796,24.65 6.897,24.678 6.988,24.733C7.08,24.788 7.153,24.86 7.206,24.95C7.259,25.04 7.286,25.14 7.286,25.25L7.286,26.305C7.286,26.415 7.259,26.515 7.206,26.605C7.153,26.695 7.08,26.768 6.988,26.823C6.897,26.878 6.796,26.905 6.686,26.905L4.091,26.905L4.091,28.245L3.686,28.245ZM4.286,26.495L6.686,26.495C6.739,26.495 6.785,26.477 6.823,26.44C6.862,26.404 6.881,26.359 6.881,26.305L6.881,25.25C6.881,25.197 6.862,25.151 6.823,25.113C6.785,25.075 6.739,25.055 6.686,25.055L4.286,25.055C4.233,25.055 4.187,25.075 4.148,25.113C4.11,25.151 4.091,25.197 4.091,25.25L4.091,26.305C4.091,26.359 4.11,26.404 4.148,26.44C4.187,26.477 4.233,26.495 4.286,26.495Z" style="fill:rgb(94,246,255);fill-rule:nonzero;"/>
        <path d="M8.391,28.245C8.281,28.245 8.18,28.218 8.088,28.163C7.997,28.108 7.923,28.035 7.868,27.943C7.813,27.851 7.786,27.75 7.786,27.64L7.786,25.95C7.786,25.84 7.813,25.74 7.868,25.648C7.923,25.556 7.997,25.483 8.088,25.428C8.18,25.373 8.281,25.345 8.391,25.345L10.131,25.345C10.244,25.345 10.347,25.373 10.438,25.428C10.53,25.483 10.603,25.556 10.658,25.648C10.713,25.74 10.741,25.84 10.741,25.95L10.741,27L8.196,27L8.196,27.64C8.196,27.694 8.215,27.74 8.253,27.778C8.292,27.816 8.338,27.835 8.391,27.835L10.741,27.835L10.741,28.245L8.391,28.245ZM8.196,26.59L10.326,26.59L10.326,25.95C10.326,25.897 10.307,25.851 10.268,25.813C10.23,25.775 10.184,25.755 10.131,25.755L8.391,25.755C8.338,25.755 8.292,25.775 8.253,25.813C8.215,25.851 8.196,25.897 8.196,25.95L8.196,26.59Z" style="fill:rgb(94,246,255);fill-rule:nonzero;"/>
        <path d="M12.596,28.245L10.996,25.345L11.476,25.345L12.836,27.845L14.196,25.345L14.676,25.345L13.071,28.245L12.596,28.245Z" style="fill:rgb(94,246,255);fill-rule:nonzero;"/>
        <path d="M17.296,28.245L17.296,25.105L16.741,25.77L16.206,25.77L17.151,24.645L17.711,24.645L17.711,28.245L17.296,28.245Z" style="fill:rgb(94,246,255);fill-rule:nonzero;"/>
        <path d="M19.021,28.245C18.934,28.245 18.852,28.228 18.773,28.193C18.695,28.158 18.628,28.11 18.571,28.048C18.514,27.986 18.473,27.915 18.446,27.835L21.446,27.835C21.499,27.835 21.545,27.816 21.583,27.778C21.622,27.74 21.641,27.694 21.641,27.64L21.641,26.915C21.641,26.862 21.622,26.816 21.583,26.778C21.545,26.74 21.499,26.72 21.446,26.72L19.021,26.72C18.908,26.72 18.805,26.693 18.713,26.638C18.622,26.583 18.548,26.51 18.493,26.418C18.438,26.326 18.411,26.225 18.411,26.115L18.411,25.25C18.411,25.137 18.438,25.035 18.493,24.943C18.548,24.851 18.622,24.778 18.713,24.723C18.805,24.668 18.908,24.64 19.021,24.64L21.446,24.64C21.556,24.64 21.657,24.668 21.748,24.723C21.84,24.778 21.913,24.851 21.968,24.943C22.023,25.035 22.051,25.137 22.051,25.25L22.051,27.64C22.051,27.75 22.023,27.851 21.968,27.943C21.913,28.035 21.84,28.108 21.748,28.163C21.657,28.218 21.556,28.245 21.446,28.245L19.021,28.245ZM19.021,26.31L21.641,26.31L21.641,25.25C21.641,25.197 21.622,25.151 21.583,25.113C21.545,25.075 21.499,25.055 21.446,25.055L19.021,25.055C18.968,25.055 18.922,25.075 18.883,25.113C18.845,25.151 18.826,25.197 18.826,25.25L18.826,26.115C18.826,26.169 18.845,26.215 18.883,26.253C18.922,26.291 18.968,26.31 19.021,26.31Z" style="fill:rgb(94,246,255);fill-rule:nonzero;"/>
        <path d="M22.566,25.715L22.566,25.305L22.976,25.305L22.976,25.715L22.566,25.715ZM22.566,28.245L22.566,27.835L22.976,27.835L22.976,28.245L22.566,28.245Z" style="fill:rgb(94,246,255);fill-rule:nonzero;"/>
        <path d="M24.461,28.245L24.461,25.105L23.906,25.77L23.371,25.77L24.316,24.645L24.876,24.645L24.876,28.245L24.461,28.245Z" style="fill:rgb(94,246,255);fill-rule:nonzero;"/>
    </g>
</svg>
